<?xml version="1.0" encoding="UTF-8" standalone="no"?>
<!-- Created with Inkscape (http://www.inkscape.org/) -->

<svg
   xmlns:dc="http://purl.org/dc/elements/1.1/"
   xmlns:cc="http://creativecommons.org/ns#"
   xmlns:rdf="http://www.w3.org/1999/02/22-rdf-syntax-ns#"
   xmlns:svg="http://www.w3.org/2000/svg"
   xmlns="http://www.w3.org/2000/svg"
   xmlns:sodipodi="http://sodipodi.sourceforge.net/DTD/sodipodi-0.dtd"
   xmlns:inkscape="http://www.inkscape.org/namespaces/inkscape"
   width="49.404694mm"
   height="46.998371mm"
   viewBox="0 0 49.404694 46.998371"
   version="1.1"
   id="svg8"
   inkscape:version="0.92.1 r15371"
   sodipodi:docname="logo star cab (gwiazda czarna).svg">
  <defs
     id="defs2" />
  <sodipodi:namedview
     id="base"
     pagecolor="#ffffff"
     bordercolor="#666666"
     borderopacity="1.0"
     inkscape:pageopacity="0.0"
     inkscape:pageshadow="2"
     inkscape:zoom="0.98994949"
     inkscape:cx="-7.0000098"
     inkscape:cy="268.46439"
     inkscape:document-units="mm"
     inkscape:current-layer="layer1"
     showgrid="false"
     inkscape:window-width="1920"
     inkscape:window-height="1013"
     inkscape:window-x="2391"
     inkscape:window-y="122"
     inkscape:window-maximized="1" />
  <metadata
     id="metadata5">
    <rdf:RDF>
      <cc:Work
         rdf:about="">
        <dc:format>image/svg+xml</dc:format>
        <dc:type
           rdf:resource="http://purl.org/dc/dcmitype/StillImage" />
        <dc:title></dc:title>
      </cc:Work>
    </rdf:RDF>
  </metadata>
  <g
     inkscape:label="Layer 1"
     inkscape:groupmode="layer"
     id="layer1"
     transform="translate(-25.271939,-191.35987)">
    <path
       style="display:inline;opacity:1;fill:#000000;fill-opacity:1;fill-rule:nonzero;stroke:none;stroke-width:0.41727445;stroke-linecap:square;stroke-linejoin:miter;stroke-miterlimit:4;stroke-dasharray:none;stroke-dashoffset:0;stroke-opacity:1;paint-order:fill markers stroke"
       d="m 59.725533,221.53834 c -0.906952,0.63748 -1.856351,1.30304 -2.742008,1.92658 0.804855,2.41403 1.539929,4.61645 2.346898,7.03991 -2.185092,-1.54999 -4.114273,-2.91304 -6.154197,-4.35785 -0.8804,0.62044 -1.793826,1.26551 -2.6865,1.89514 0.0051,0.004 0.008,0.009 0.01224,0.013 0.0022,0.001 0.0043,0.002 0.0065,0.004 0.0058,0.004 0.01014,0.007 0.01513,0.0101 0.0043,0.003 0.0085,0.007 0.0126,0.009 0.0043,0.004 0.0085,0.007 0.0126,0.0108 0.0036,0.003 0.0065,0.006 0.0094,0.008 0.0014,7.2e-4 0.0043,0.003 0.0058,0.004 0.0036,0.003 0.0029,0.002 0.0072,0.006 3.84e-4,1.8e-4 3.84e-4,5.8e-4 7.24e-4,7.3e-4 3.84e-4,1.8e-4 3.84e-4,5.7e-4 7.24e-4,7.2e-4 l 0.0022,-0.001 14.712605,10.25077 -5.528716,-16.72031 0.0029,-0.002 c -0.0043,-0.008 -0.0085,-0.0176 -0.01122,-0.029 -5.79e-4,-0.002 -7.24e-4,-0.004 -0.0014,-0.007 -5.79e-4,-0.003 -0.0014,-0.006 -0.0022,-0.008 -7.24e-4,-0.004 -0.0014,-0.008 -0.0029,-0.0116 -5.79e-4,-0.002 -0.0014,-0.005 -0.0022,-0.007 -1.81e-4,-7.3e-4 -3.84e-4,-0.001 -7.24e-4,-0.003 -5.79e-4,-0.001 -0.0014,-0.002 -0.0022,-0.004 -0.0022,-0.004 -0.0036,-0.007 -0.0058,-0.0108 -0.0022,-0.004 -0.0043,-0.008 -0.0065,-0.013 -7.24e-4,-0.001 -0.0014,-0.004 -0.0022,-0.005 z"
       id="path7501-15"
       inkscape:connector-curvature="0"
       inkscape:export-filename="D:\WYCIECZKI PRZEWODNICKIE (PRACA)\StarTravel\logo\nowe logo strona.png"
       inkscape:export-xdpi="300.01999"
       inkscape:export-ydpi="300.01999" />
    <path
       style="display:inline;opacity:1;fill:#000000;fill-opacity:1;fill-rule:nonzero;stroke:none;stroke-width:0.42620453;stroke-linecap:square;stroke-linejoin:miter;stroke-miterlimit:4;stroke-dasharray:none;stroke-dashoffset:0;stroke-opacity:1;paint-order:fill markers stroke"
       d="m 44.081509,208.20799 c 1.163008,0.004 2.379345,0.008 3.515698,0.0101 0.849966,-2.42193 1.624779,-4.63198 2.47893,-7.06278 0.852935,2.51285 1.609399,4.72701 2.407063,7.07113 1.129982,0.002 2.303213,0.003 3.449299,0.004 -0.0014,-0.007 -0.0014,-0.0116 -0.0014,-0.0175 -5.72e-4,-0.002 -0.0022,-0.004 -0.0029,-0.007 -0.0022,-0.007 -0.0043,-0.0113 -0.0065,-0.017 -0.0022,-0.005 -0.0029,-0.01 -0.0051,-0.0146 -0.0014,-0.005 -0.0022,-0.0107 -0.0043,-0.016 -0.0014,-0.004 -0.0014,-0.008 -0.0029,-0.0122 -5.72e-4,-0.001 -0.0022,-0.005 -0.0014,-0.007 -0.0014,-0.004 -0.0014,-0.004 -0.0022,-0.009 -1.88e-4,-3.4e-4 2.9e-5,-6.5e-4 -1.66e-4,-6.7e-4 -1.96e-4,-3.6e-4 2.1e-5,-6.3e-4 -1.74e-4,-6.9e-4 l -0.0029,-1.2e-4 -5.859765,-16.76879 -5.925658,16.74859 -0.0036,6e-5 c -0.0022,0.009 -0.0043,0.0191 -0.0091,0.0299 -7.25e-4,0.002 -0.0014,0.004 -0.0029,0.007 -7.24e-4,0.003 -0.0022,0.006 -0.0036,0.008 -0.0014,0.004 -0.0036,0.007 -0.0051,0.011 -7.24e-4,0.002 -0.0014,0.005 -0.0029,0.007 -2.68e-4,6.7e-4 -5.58e-4,10e-4 -7.24e-4,0.003 -3.84e-4,0.001 -1.31e-4,0.003 -4.06e-4,0.004 -3.84e-4,0.004 -0.0022,0.008 -0.0022,0.012 -7.24e-4,0.005 -0.0022,0.009 -0.0029,0.014 -2.46e-4,0.001 -7.24e-4,0.004 -7.24e-4,0.006 z"
       id="path7501-1-4"
       inkscape:connector-curvature="0"
       inkscape:export-filename="D:\WYCIECZKI PRZEWODNICKIE (PRACA)\StarTravel\logo\nowe logo strona.png"
       inkscape:export-xdpi="300.01999"
       inkscape:export-ydpi="300.01999" />
    <path
       style="display:inline;opacity:1;fill:#000000;fill-opacity:1;fill-rule:nonzero;stroke:none;stroke-width:0.3072733;stroke-linecap:square;stroke-linejoin:miter;stroke-miterlimit:4;stroke-dasharray:none;stroke-dashoffset:0;stroke-opacity:1;paint-order:fill markers stroke"
       d="m 61.99496,213.19036 c -28.262048,-2.31356 0,2e-5 -28.262048,-2.31356 l 22.146641,4.22822 -17.209918,17.72751 23.325325,-19.64215 z"
       id="path5124-9-5-3"
       inkscape:connector-curvature="0"
       sodipodi:nodetypes="cccccc"
       inkscape:export-filename="D:\WYCIECZKI PRZEWODNICKIE (PRACA)\StarTravel\logo\nowe logo strona.png"
       inkscape:export-xdpi="300.01999"
       inkscape:export-ydpi="300.01999" />
    <path
       style="display:inline;opacity:1;fill:#000000;fill-opacity:1;fill-rule:nonzero;stroke:none;stroke-width:0.30000001;stroke-linecap:square;stroke-linejoin:miter;stroke-miterlimit:4;stroke-dasharray:none;stroke-dashoffset:0;stroke-opacity:0;paint-order:fill markers stroke"
       d="m 74.676634,209.20833 c -17.005616,0 0,0 -49.404695,0.018 l 39.477137,3.21165 -30.031154,25.82453 c 39.958712,-29.05418 25.91035,-18.88115 39.958712,-29.05418 z"
       id="path5124-9-5"
       inkscape:connector-curvature="0"
       sodipodi:nodetypes="ccccc"
       inkscape:export-filename="D:\WYCIECZKI PRZEWODNICKIE (PRACA)\StarTravel\logo\nowe logo strona.png"
       inkscape:export-xdpi="300.01999"
       inkscape:export-ydpi="300.01999" />
  </g>
</svg>
