<?xml version="1.0" encoding="UTF-8" standalone="no"?>
<!-- Generator: Adobe Illustrator 18.0.0, SVG Export Plug-In . SVG Version: 6.00 Build 0)  -->

<svg
   xmlns:osb="http://www.openswatchbook.org/uri/2009/osb"
   xmlns:dc="http://purl.org/dc/elements/1.1/"
   xmlns:cc="http://creativecommons.org/ns#"
   xmlns:rdf="http://www.w3.org/1999/02/22-rdf-syntax-ns#"
   xmlns:svg="http://www.w3.org/2000/svg"
   xmlns="http://www.w3.org/2000/svg"
   xmlns:sodipodi="http://sodipodi.sourceforge.net/DTD/sodipodi-0.dtd"
   xmlns:inkscape="http://www.inkscape.org/namespaces/inkscape"
   version="1.1"
   id="Capa_1"
   x="0px"
   y="0px"
   viewBox="-5 -5 368.416 368.416"
   style="enable-background:new 0 0 368.416 368.416;"
   xml:space="preserve"
   sodipodi:docname="horizontal-scroll.svg"
   inkscape:version="0.92.1 r15371"><metadata
     id="metadata45"><rdf:RDF><cc:Work
         rdf:about=""><dc:format>image/svg+xml</dc:format><dc:type
           rdf:resource="http://purl.org/dc/dcmitype/StillImage" /><dc:title></dc:title></cc:Work></rdf:RDF></metadata><defs
     id="defs43"><linearGradient
       id="linearGradient4524"
       osb:paint="solid"><stop
         style="stop-color:#000000;stop-opacity:1;"
         offset="0"
         id="stop4522" /></linearGradient></defs><sodipodi:namedview
     pagecolor="#ffffff"
     bordercolor="#666666"
     borderopacity="1"
     objecttolerance="10"
     gridtolerance="10"
     guidetolerance="10"
     inkscape:pageopacity="0"
     inkscape:pageshadow="2"
     inkscape:window-width="2400"
     inkscape:window-height="1284"
     id="namedview41"
     showgrid="false"
     inkscape:zoom="1.8118345"
     inkscape:cx="261.50931"
     inkscape:cy="169.98295"
     inkscape:window-x="-9"
     inkscape:window-y="-9"
     inkscape:window-maximized="1"
     inkscape:current-layer="g8" /><g
     id="g8"><path
       d="M262.843,44.673h37.364c-3.809,3.913-3.782,10.169,0.091,14.042c1.953,1.952,4.512,2.929,7.071,2.929   c2.559,0,5.119-0.977,7.071-2.929l16.971-16.971c3.905-3.905,3.905-10.237,0-14.143l-16.971-16.971   c-3.905-3.904-10.237-3.904-14.143,0c-3.873,3.873-3.899,10.129-0.091,14.042h-37.364c-5.523,0-10,4.477-10,10   C252.843,40.196,257.321,44.673,262.843,44.673z"
       id="path2"
       style="fill:none;stroke:#ff4800;stroke-opacity:1;stroke-width:10;stroke-miterlimit:4;stroke-dasharray:none;stroke-linejoin:miter;stroke-linecap:butt" /><path
       d="M324.341,82.148h-37.364c3.809-3.913,3.782-10.169-0.091-14.042c-3.905-3.904-10.237-3.904-14.143,0l-16.971,16.971   c-3.905,3.905-3.905,10.237,0,14.143l16.971,16.971c1.953,1.952,4.512,2.929,7.071,2.929s5.119-0.977,7.071-2.929   c3.873-3.873,3.899-10.129,0.091-14.042h37.364c5.523,0,10-4.477,10-10C334.341,86.625,329.863,82.148,324.341,82.148z"
       id="path4"
       style="stroke:#ff4800;stroke-opacity:1;fill:none;stroke-width:10;stroke-miterlimit:4;stroke-dasharray:none;paint-order:normal" /><path
       d="m 186.49614,348.96794 c -119.308998,0 -135.216998,-60.477 -133.382998,-125.644 0.442,-15.717 13.954,-25 25,-25 v 28.823 c 0,3.625 2.514,4.047 3.264,4.047 0.75,0 3.18,-0.412 3.18,-4.038 V 45.023926 c 0,-13.515 10.956,-24.472 24.471998,-24.472 12.401,0 24.246,9.583 24.246,21.188 0.007,0.045 -0.064,89.860014 -0.077,111.957014 -0.001,0.046 -0.013,0.089 -0.013,0.135 v 4.617 c 0,2.201 1.785,3.985 3.986,3.985 2.2,0 3.984,-1.784 3.984,-3.985 v -1.194 c 0.217,-13.328 11.083,-24.067 24.463,-24.067 13.515,0 24.472,10.957 24.472,24.473 l 0.019,17.721 c 0,2.168 1.757,3.925 3.925,3.925 2.167,0 3.923,-1.757 3.923,-3.925 l -0.008,-1.014 c 0,-12.305 11.956,-20.894 24.256,-20.894 13.517,0 24.422,10.956 24.422,24.472 l 0.049,17.937 c 0,2.109 1.71,3.819 3.819,3.819 2.109,0 3.818,-1.71 3.818,-3.819 l -0.014,-1.365 c 0,-11.19 12.108,-19.77 24.017,-19.77 13.514,0 24.472,10.957 24.472,24.472 l 0.078,44.96 c 0,41.812 -16.262,104.788 -116.37,104.788 z"
       id="path6"
       inkscape:connector-curvature="0"
       style="stroke-width:10;fill-opacity:1;fill:none;stroke:#ff4800;stroke-opacity:1;stroke-miterlimit:4;stroke-dasharray:none"
       sodipodi:nodetypes="sccsssssccsssscsccsccsccsccsccs" /></g><g
     id="g10" /><g
     id="g12" /><g
     id="g14" /><g
     id="g16" /><g
     id="g18" /><g
     id="g20" /><g
     id="g22" /><g
     id="g24" /><g
     id="g26" /><g
     id="g28" /><g
     id="g30" /><g
     id="g32" /><g
     id="g34" /><g
     id="g36" /><g
     id="g38" /></svg>